<?xml version="1.0" encoding="utf-8"?>
<!-- Generator: Adobe Illustrator 26.0.1, SVG Export Plug-In . SVG Version: 6.00 Build 0)  -->
<svg version="1.1" id="Calque_1" xmlns="http://www.w3.org/2000/svg" xmlns:xlink="http://www.w3.org/1999/xlink" x="0px" y="0px"
	 viewBox="0 0 226.9 381.1" style="enable-background:new 0 0 226.9 381.1;" xml:space="preserve">
<g>
	<path d="M215.3,133.7h-19.9V109c0-6.4-5.2-11.7-11.7-11.7H43.3c-6.4,0-11.7,5.2-11.7,11.7v24.7H11.7c-6.4,0-11.7,5.2-11.7,11.7
		v36.4c0,6.4,5.2,11.7,11.7,11.7h15.8l16.8,177c0.6,6,5.6,10.6,11.6,10.6H171c6,0,11-4.6,11.6-10.6l16.8-177h15.8
		c6.4,0,11.7-5.2,11.7-11.7v-36.4C227,138.9,221.7,133.7,215.3,133.7L215.3,133.7z M55,120.6h117.1v13.1H55V120.6z M66.6,357.7
		L64.2,332h98.7l-2.4,25.7H66.6z M173.7,217.8H53.3L51,193.5h125.1L173.7,217.8z M203.6,170.1H23.4V157h180.2L203.6,170.1z"/>
	<path d="M45.7,77.3H69c0-3.2,0.6-4.2,2.2-6.8c2.2-3.7,5.6-9.2,5.6-18.9s-3.4-15.2-5.6-18.9C69.6,30,69,29,69,25.8s0.6-4.2,2.2-6.9
		c2.2-3.7,5.6-9.2,5.6-18.9H53.5c0,3.2-0.6,4.2-2.2,6.9c-2.2,3.7-5.6,9.2-5.6,18.9s3.4,15.2,5.6,18.9c1.6,2.7,2.2,3.7,2.2,6.9
		s-0.6,4.2-2.2,6.8C49.1,62,45.7,67.6,45.7,77.3L45.7,77.3z"/>
	<path d="M97.6,77.3h23.3c0-3.2,0.6-4.2,2.2-6.8c2.2-3.7,5.6-9.2,5.6-18.9s-3.4-15.2-5.6-18.9c-1.6-2.7-2.2-3.7-2.2-6.9
		c0-3.2,0.6-4.2,2.2-6.9c2.2-3.7,5.6-9.2,5.6-18.9h-23.3c0,3.2-0.6,4.2-2.2,6.9c-2.2,3.7-5.6,9.2-5.6,18.9s3.4,15.2,5.6,18.9
		c1.6,2.7,2.2,3.7,2.2,6.9s-0.6,4.2-2.2,6.8C101,62,97.6,67.6,97.6,77.3L97.6,77.3z"/>
	<path d="M149.5,77.3h23.3c0-3.2,0.6-4.2,2.2-6.8c2.2-3.7,5.6-9.2,5.6-18.9s-3.3-15.2-5.6-18.9c-1.6-2.7-2.2-3.7-2.2-6.9
		s0.6-4.2,2.2-6.9c2.2-3.7,5.6-9.2,5.6-18.9h-23.3c0,3.2-0.6,4.2-2.2,6.9c-2.2,3.7-5.6,9.2-5.6,18.9s3.3,15.2,5.6,18.9
		c1.6,2.7,2.2,3.7,2.2,6.9s-0.6,4.2-2.2,6.8C152.9,62,149.5,67.6,149.5,77.3L149.5,77.3z"/>
</g>
</svg>
