<?xml version="1.0" encoding="utf-8"?>
<!-- Generator: Adobe Illustrator 26.0.1, SVG Export Plug-In . SVG Version: 6.00 Build 0)  -->
<svg version="1.1" id="Mode_Isolation" xmlns="http://www.w3.org/2000/svg" xmlns:xlink="http://www.w3.org/1999/xlink" x="0px"
	 y="0px" viewBox="0 0 28 50.1" style="enable-background:new 0 0 28 50.1;" xml:space="preserve">
<style type="text/css">
	.st0{fill:#FFFFFF;}
</style>
<path class="st0" d="M27,20.7c-0.7-1.3-1.7-2.3-2.9-3.2c-1.2-0.8-2.6-1.4-4.2-1.8c-0.5-0.1-1-0.2-1.5-0.3c-0.6-0.2-1.1-0.3-1.7-0.5
	c-1.8-0.5-3.3-0.9-4.5-1.3s-2.1-0.9-2.7-1.4c-0.7-0.4-1-1.2-1-2.2c0-1.3,0.5-2.3,1.4-3s2.4-1,4.2-1c1.1,0,2.1,0.1,3.2,0.4
	c1,0.3,2,0.6,2.9,1s1.6,0.8,2.2,1.2c0.6,0.4,1,0.7,1.3,0.9l3-5.6c-1-0.7-2.2-1.4-3.5-2S20.5,0.8,19,0.4C17.6,0.2,16.1,0,14.4,0
	C12,0,9.8,0.4,7.8,1.3C5.9,2.1,4.3,3.4,3.1,5C2,6.6,1.4,8.7,1.4,11.1c0,1.8,0.4,3.3,1.1,4.5c0.4,0.7,1,1.3,1.7,1.9
	c-1.5,0.6-2.9,1.4-4.2,2.3l3,5.8l-3,5.9c1.2,0.8,2.5,1.5,3.8,2.1c-0.5,0.5-1,1-1.3,1.5c-0.8,1.1-1.1,2.6-1.1,4.3
	c0,2.3,0.6,4.3,1.8,5.9c1.2,1.6,2.7,2.8,4.7,3.6s4.2,1.2,6.5,1.2c1.7,0,3.2-0.2,4.7-0.5c1.5-0.4,2.9-0.8,4.2-1.4s2.5-1.2,3.5-1.9
	l-3-5.4c-0.2,0.2-0.7,0.5-1.3,0.9c-0.6,0.4-1.4,0.8-2.2,1.1c-0.9,0.4-1.8,0.7-2.9,1c-1,0.3-2.1,0.4-3.2,0.4c-1.9,0-3.3-0.3-4.2-1
	s-1.4-1.6-1.4-2.9c0-0.9,0.3-1.7,0.9-2.2c0.6-0.5,1.5-1,2.7-1.4c0.8-0.2,1.7-0.5,2.7-0.8c0,0,0,0,0.1,0c1.8,0,3.4-0.2,5-0.6
	c1.6-0.4,3-1,4.2-1.8s2.2-1.9,2.9-3.3c0.7-1.3,1-2.9,1-4.8v-0.1v-0.1C28,23.6,27.7,22,27,20.7z M11,29.3c-1.3-0.3-2.5-0.7-3.6-1.2
	s-2-1-2.8-1.5S3.3,25.7,3,25.4c0.3-0.3,0.8-0.7,1.6-1.1c0.8-0.5,1.7-0.9,2.8-1.4S9.7,22,11,21.7c0.9-0.2,1.8-0.4,2.7-0.4
	c0.9,0.3,1.8,0.5,2.6,0.8c1.4,0.4,2.4,1,3.2,1.6c0.6,0.5,0.9,1.1,1.1,1.8c-0.1,0.7-0.5,1.3-1.1,1.7c-0.8,0.6-1.8,1.1-3.2,1.5
	c-1,0.3-2.1,0.6-3.3,1C12.4,29.6,11.7,29.5,11,29.3z"/>
</svg>
