<?xml version="1.0" encoding="utf-8"?>
<!-- Generator: Adobe Illustrator 26.0.1, SVG Export Plug-In . SVG Version: 6.00 Build 0)  -->
<svg version="1.1" id="Mode_Isolation" xmlns="http://www.w3.org/2000/svg" xmlns:xlink="http://www.w3.org/1999/xlink" x="0px"
	 y="0px" viewBox="0 0 34.6 50.1" style="enable-background:new 0 0 34.6 50.1;" xml:space="preserve">
<style type="text/css">
	.st0{fill:#FFFFFF;}
</style>
<path class="st0" d="M34.6,18.1c0-2.3-0.4-4.5-1.2-6.6s-2-4.1-3.5-5.8s-3.3-3.1-5.4-4.2c-2.1-1-4.5-1.5-7-1.5s-4.8,0.5-7,1.5
	c-2.1,1-4,2.3-5.5,4s-2.8,3.6-3.7,5.8C0.4,13.4,0,15.6,0,18c0,2.3,0.4,4.5,1.2,6.6c0.1,0.3,0.2,0.6,0.4,0.8
	c-0.1,0.3-0.3,0.5-0.4,0.8C0.4,28.3,0,30.5,0,32.7c0,2.3,0.4,4.5,1.3,6.6s2.1,3.9,3.7,5.6c1.5,1.6,3.4,2.9,5.5,3.9s4.5,1.4,7,1.4
	c2.6,0,4.9-0.5,7-1.5s3.9-2.3,5.4-4s2.7-3.5,3.5-5.6c0.8-2.1,1.2-4.2,1.2-6.4c0-2.3-0.4-4.4-1.3-6.5c-0.1-0.2-0.2-0.4-0.3-0.6
	c0.1-0.2,0.2-0.4,0.3-0.6C34.2,22.7,34.6,20.4,34.6,18.1z M7.7,13.7c0.4-1.4,1.1-2.7,2-3.8s2-2,3.2-2.7c1.3-0.7,2.7-1,4.4-1
	c1.6,0,3.1,0.3,4.3,1c1.3,0.6,2.3,1.5,3.2,2.6c0.9,1.1,1.6,2.4,2,3.8c0.5,1.4,0.7,2.9,0.7,4.4c0,0.2,0,0.4,0,0.7
	c-1-0.8-2.2-1.5-3.4-2c-2.1-0.9-4.4-1.4-6.9-1.4c-2.6,0-5,0.5-7.1,1.5c-1,0.4-2.1,1.1-3.1,1.8c0-0.2,0-0.4,0-0.6
	C7,16.5,7.2,15.1,7.7,13.7z M25.5,25.5c-0.2,0.2-0.3,0.5-0.5,0.7c-0.9,1.1-2,2-3.2,2.7c-1.3,0.7-2.8,1-4.5,1c-1.6,0-3.1-0.3-4.4-1
	c-1.3-0.6-2.4-1.5-3.2-2.6c-0.2-0.3-0.4-0.5-0.6-0.8c0.2-0.3,0.4-0.5,0.6-0.8c0.9-1.1,2-1.9,3.2-2.6c1.3-0.6,2.7-0.9,4.4-0.9
	s3.2,0.3,4.5,1s2.3,1.5,3.2,2.6C25.2,25,25.4,25.2,25.5,25.5z M27,37c-0.5,1.4-1.1,2.6-2,3.7c-0.9,1.1-2,1.9-3.2,2.6
	c-1.3,0.6-2.7,0.9-4.3,0.9c-1.6,0-3.1-0.3-4.4-1s-2.4-1.5-3.2-2.6c-0.9-1.1-1.6-2.3-2-3.7C7.2,35.5,7,34.1,7,32.7c0-0.1,0-0.1,0-0.2
	c1,0.8,2.1,1.5,3.2,2c2.1,1,4.5,1.5,7.1,1.5c2.5,0,4.8-0.5,6.9-1.5c1.2-0.6,2.4-1.3,3.4-2.1c0,0.1,0,0.1,0,0.2
	C27.7,34.2,27.4,35.6,27,37z"/>
</svg>
