<?xml version="1.0" encoding="utf-8"?>
<!-- Generator: Adobe Illustrator 26.0.1, SVG Export Plug-In . SVG Version: 6.00 Build 0)  -->
<svg version="1.1" id="Mode_Isolation" xmlns="http://www.w3.org/2000/svg" xmlns:xlink="http://www.w3.org/1999/xlink" x="0px"
	 y="0px" viewBox="0 0 26.3 49.6" style="enable-background:new 0 0 26.3 49.6;" xml:space="preserve">
<style type="text/css">
	.st0{fill:#FFFFFF;}
</style>
<path class="st0" d="M15.3,23.6c2.2,0,4.1-0.6,5.8-1.7s2.9-2.6,3.8-4.4s1.3-3.7,1.3-5.7c0-1.5-0.3-2.9-0.8-4.3s-1.3-2.7-2.3-3.8
	s-2.2-2-3.6-2.7S16.6,0,15,0H0v15.2v20.3v14.1h15c1.6,0,3.1-0.3,4.5-1c1.4-0.6,2.6-1.5,3.6-2.6s1.8-2.3,2.3-3.7
	c0.6-1.4,0.8-2.7,0.8-4.2c0-1.9-0.5-3.7-1.3-5.5c-0.9-1.8-2.2-3.2-3.8-4.3c-1.7-1.1-3.6-1.6-5.8-1.6H6.9v-3.2h8.4V23.6z M6.9,6h7.7
	c0.8,0,1.6,0.2,2.3,0.7c0.7,0.4,1.3,1.1,1.8,1.9c0.5,0.9,0.7,1.9,0.7,3.1c0,1.1-0.2,2.1-0.6,3s-0.9,1.6-1.6,2
	c-0.7,0.5-1.4,0.7-2.3,0.7h-8v-2.3C6.9,15.1,6.9,6,6.9,6z M14.9,32.6c0.9,0,1.6,0.2,2.3,0.7c0.7,0.5,1.2,1.1,1.6,2s0.6,1.8,0.6,2.9
	c0,1.2-0.2,2.2-0.7,3s-1,1.5-1.8,1.9c-0.7,0.4-1.5,0.7-2.3,0.7H6.9v-8.3v-2.9C6.9,32.6,14.9,32.6,14.9,32.6z"/>
</svg>
