<?xml version="1.0" encoding="utf-8"?>
<!-- Generator: Adobe Illustrator 26.0.1, SVG Export Plug-In . SVG Version: 6.00 Build 0)  -->
<svg version="1.1" id="Calque_1" xmlns="http://www.w3.org/2000/svg" xmlns:xlink="http://www.w3.org/1999/xlink" x="0px" y="0px"
	 viewBox="0 0 1097.2 1097.3" style="enable-background:new 0 0 1097.2 1097.3;" xml:space="preserve">
<g>
	<path d="M1041.6,307.8c-3.4-6.9-6.9-13.7-10.5-20.5C934.9,110.1,750,0,548.6,0c-66.3,0-131.2,11.7-192.9,34.9l-3.2,1.2
		c-6.6,2.5-13.2,5.2-19.8,8.1c-108.8,46.5-201.3,128.9-260.3,232C25,358.7,0,452.9,0,548.6C0,649,27.3,747,78.9,832.2l2.2,3.6
		c11.8,19.2,25.2,38.1,39.7,56.3c23,28.7,49.1,55.2,77.4,78.7c98.1,81.6,222.6,126.6,350.4,126.6c152.5,0,294.2-61.1,398.9-172
		c19.9-21,38.3-43.9,54.8-68l1.2-1.8c61.3-90.8,93.8-196.9,93.8-306.9C1097.2,464.2,1078.5,383.1,1041.6,307.8L1041.6,307.8z
		 M85.3,756.6c2.1,10.7,4.1,21.2,4.6,31.7c-38.5-73.6-58.8-155.8-58.8-239.7c0-90.3,23.6-179.2,68.2-257c0.6-1,1.2-2,1.8-3
		c43.1-10.1,76.1-28.7,127.6-57.8c28.1-15.9,63.1-35.6,108.3-58.7c51.7-26.4,105.5-40.3,155.7-40.3c62.7,0,116.5,21,155.8,60.7
		c44.2,44.7,67.1,111.3,66.1,192.5c-1,84.6-26.7,101.2-70.7,101.2h0c-19.4,0-42.3-3.5-68.7-7.4c-34.6-5.2-73.8-11.1-117.4-11.1
		c-82.3,0-156.7,22-227.5,67.2C62.9,641.7,74.8,702.8,85.3,756.6L85.3,756.6z M107.6,819.7l-2.1-3.5c-0.7-1.1-1.3-2.3-2-3.4
		c4.3-21,0.7-40.3-2.9-59.1c-10-51.4-20.3-104.5,138.1-205.8c68.2-43.6,139.9-64.8,219.1-64.8c42.5,0,81,5.8,115,10.9
		c27.1,4.1,50.5,7.6,71.1,7.6h0c60.3,0,85.3-33.8,86.3-116.6c1-85.4-23.4-155.8-70.6-203.6c-42.2-42.7-99.9-65.3-166.8-65.3
		c-52.7,0-109,14.5-162.8,42c-45.5,23.2-80.6,43.1-108.9,59c-43.8,24.8-73.9,41.7-108.1,52.1c55.8-86.8,137.3-156.1,232-196.6
		c7.2-3.1,14.5-6.1,21.5-8.7l3.1-1.2c8.2-3,16.5-5.8,24.8-8.4c36.9-1.2,101.3,0.9,213.6,12.3c192.6,19.6,211.5,116.4,233.3,228.5
		c9.1,46.5,18.5,94.7,40.8,140.2c35.3,71.8,41.2,126.6,16.5,154.2c-24.8,27.7-80.4,27.7-156.5,0.2
		C578.3,530.7,285.9,607,187.2,707.4c-57.7,58.7-52.5,91.7-48.4,118.2c2,12.8,3.7,23.7-2.1,36.5
		C126.2,848.2,116.4,833.9,107.6,819.7L107.6,819.7z M147.4,875.4c11.9-19.9,9.4-36.3,6.9-52.2c-4-25.5-8.1-51.8,44.1-104.9
		C294,621,577.7,547,736.9,604.6c83.7,30.3,143.7,28.8,173.4-4.4c29.7-33.1,24.8-92.4-14.1-171.5c-21.5-43.7-30.7-90.7-39.6-136.3
		c-22.1-113.3-42.9-220.2-247-241c-61.5-6.3-112.9-10.2-154.2-11.9c30.6-5.6,61.7-8.4,93.1-8.4c190,0,364.4,103.9,455.2,271
		c3.1,5.8,6.1,11.7,9,17.6c-8,8.1-19,18-33.3,29.4c-49.8,40-31.7,94.9-12.5,153c17.2,52,36.6,111,10.3,168.9
		c-29.8,65.6-66.2,56.9-145.8,37.7c-61-14.7-144.5-34.8-263.2-29.1c-265.4,12.8-308.2,114.2-314.9,221.9
		c-2.8,44.3-11,57.3-15.3,61.1c-6.8-5.1-13.5-10.3-20.1-15.8C192.2,925.4,168.5,901.3,147.4,875.4L147.4,875.4z M924.9,903.9
		c-98.8,104.6-232.4,162.3-376.3,162.3c-59.3,0-117.8-10.3-173-29.9l0.7-0.3c-0.5-0.9-45.2-87.6-13.2-152.2
		c17.3-35,54.4-57.6,110.1-67.2c197.1-33.7,216.9-27.7,345.6,12.1l12.3,3.8c66.8,20.6,106.9,27,130.9,27.5
		C950.3,875.3,938,890.1,924.9,903.9L924.9,903.9z M978.8,836.5l-1.2,1.7c-1.4,2-2.8,3.9-4.2,5.9c-16.6,1.5-54.8-0.9-137.8-26.5
		l-12.2-3.8c-131.8-40.7-152-46.9-352.8-12.5c-61,10.4-101.8,35.9-121.5,75.6c-27.5,55.7-5.4,123,6.8,152
		c-37-14.8-72.3-33.9-105.1-57c10-11.2,15.9-34.1,18.1-69.4C273.1,834.8,281,709,569,695.1c116.4-5.6,198.7,14.2,258.8,28.7
		c80.2,19.3,128.5,31,163.7-46.3c28.8-63.4,8.4-125.5-9.7-180.2c-18.9-57.4-33.9-102.7,7.5-136c12.5-10.1,22.5-18.8,30.4-26.5
		c30.6,67.3,46.4,139.1,46.4,213.9C1066.1,651.7,1035.9,751.2,978.8,836.5L978.8,836.5z"/>
	<path d="M646.4,859.6c-32.3,0-111.1,3.3-145.6,34.1c-7.7,6.9-14.8,13-21.2,18.6c-41.2,35.6-60,51.9-31.2,91.6
		c13.7,18.9,27.3,26.6,47,26.6c12.3,0,27-3,45.6-6.9c14.6-3,31.1-6.5,51.6-9.7c70.3-10.8,209.6-52.6,225.1-93.8
		c3.1-8.3,1.7-16.3-4.2-23.2C793,872.4,713.9,859.6,646.4,859.6L646.4,859.6z M803.2,914.6c-10.5,27.9-128.8,70.9-212.9,83.9
		c-20.9,3.2-38.4,6.9-52.4,9.8c-17.7,3.7-31.6,6.6-42.4,6.6c-12.5,0-22.1-3.3-34.4-20.2c-19.8-27.4-13.4-34.2,28.8-70.7
		c6.5-5.6,13.6-11.8,21.4-18.7c21.1-18.9,71.7-30.1,135.2-30.1c70.9,0,140.5,14.3,155.3,31.8C803.8,909.5,804.3,911.7,803.2,914.6
		L803.2,914.6z"/>
	<path d="M590.4,918.5c-6.3,0-12.3,0.5-17.4,1.4c-19.4,3.6-50.2,24.7-48.8,42c0.4,5.5,4.2,14.7,24.3,15.2c2.1,0,4.3,0.1,6.3,0.1
		c40.2,0,68.4-9,81.6-26c5.5-7.1,3.9-13.3,2.4-16.3C631.1,919.3,597.1,918.5,590.4,918.5L590.4,918.5z M624.1,941.7
		c-10.6,13.6-37.7,20.7-75.4,19.9c-5.5-0.1-8-1-9-1.5c1.5-6,20.4-22,36-24.9c4.2-0.8,9.3-1.2,14.6-1.2c18.4,0,31.2,4.4,34,7.2
		C624.3,941.4,624.2,941.5,624.1,941.7L624.1,941.7z"/>
	<path d="M255.7,474.1c39.4-20.1,80.1-40.8,117.5-45.7l5.4-0.7c92.6-11.9,207.9-26.8,226-88.7c19-64.8-4.2-84.8-103.6-135.5
		c-17.5-9-38.3-13.5-61.6-13.5c-104.7,0-233.8,88.9-260.1,110.9c-18.2,15.2-18.2,15.2-20.1,17c-1.9,1.7-5.7,5.2-31.4,27
		c-29.4,25.1-45.3,61-42.5,96c2.3,28,16.1,51.1,39.1,65c7.5,4.6,16.5,6.9,26.6,6.9C179.9,512.8,216.7,494,255.7,474.1L255.7,474.1z
		 M100.7,439.6c-2.4-30,11.5-61,37.1-82.9c25.8-22.1,29.7-25.5,31.6-27.3c1.9-1.7,1.9-1.7,19.7-16.6
		c34.3-28.6,157.2-107.2,250.1-107.2c20.9,0,39.3,4,54.6,11.8c99.4,50.7,111.1,65,95.7,117.3c-15.3,52.2-129.6,66.9-213.1,77.7
		l-5.4,0.7c-40,5.2-82,26.5-122.5,47.2c-37.3,19-72.5,36.9-97.7,36.9c-7.4,0-13.4-1.5-18.5-4.6C113.8,481.3,102.6,462.5,100.7,439.6
		L100.7,439.6z"/>
	<path d="M296.8,395.8c12.2,0,27.5-3.2,43.7-6.6c10.7-2.2,21.7-4.6,32.8-6.2c56-8.4,86.9-19.7,100.2-57.9c3-8.6,5.7-19.6-0.4-28.1
		c-6.8-9.6-20.9-11.4-44.5-11.4c-8.3,0-18,0.2-29.1,0.5l-25,0.6c-59.2,1.2-91.9,1.8-106.7,62.3c-4.2,17.2-3.2,28.9,3,36.9
		C276.1,392.5,284.6,395.8,296.8,395.8L296.8,395.8z M282.9,352.6c12-48.9,32.1-49.3,91.9-50.4l25.1-0.6c11-0.3,20.5-0.5,28.7-0.5
		c7.8,0,28.3,0,31.8,4.9c0.8,1.1,1.7,4.4-1.6,13.9c-9.7,27.8-30.2,38.9-87.8,47.6c-11.6,1.7-22.8,4.1-33.7,6.4
		c-15.4,3.3-30,6.3-40.5,6.3c-7.1,0-11.5-1.3-13.7-4C281,373.5,279.3,367.3,282.9,352.6L282.9,352.6z"/>
</g>
</svg>
