<?xml version="1.0" encoding="utf-8"?>
<!-- Generator: Adobe Illustrator 26.0.1, SVG Export Plug-In . SVG Version: 6.00 Build 0)  -->
<svg version="1.1" id="Calque_1" xmlns="http://www.w3.org/2000/svg" xmlns:xlink="http://www.w3.org/1999/xlink" x="0px" y="0px"
	 viewBox="0 0 268.4 50.1" style="enable-background:new 0 0 268.4 50.1;" xml:space="preserve">
<g>
	<path d="M34.6,18.1c0-2.3-0.4-4.5-1.2-6.6c-0.8-2.1-2-4.1-3.5-5.8c-1.5-1.7-3.3-3.1-5.4-4.2c-2.1-1-4.5-1.5-7-1.5
		c-2.5,0-4.8,0.5-7,1.5c-2.1,1-4,2.3-5.5,4c-1.5,1.7-2.8,3.6-3.7,5.8C0.4,13.4,0,15.6,0,18c0,2.3,0.4,4.5,1.2,6.6
		c0.1,0.3,0.2,0.6,0.4,0.8c-0.1,0.3-0.3,0.5-0.4,0.8C0.4,28.3,0,30.5,0,32.7c0,2.3,0.4,4.5,1.3,6.6c0.9,2.1,2.1,3.9,3.7,5.6
		c1.5,1.6,3.4,2.9,5.5,3.9c2.1,1,4.5,1.4,7,1.4c2.6,0,4.9-0.5,7-1.5c2.1-1,3.9-2.3,5.4-4c1.5-1.7,2.7-3.5,3.5-5.6
		c0.8-2.1,1.2-4.2,1.2-6.4c0-2.3-0.4-4.4-1.3-6.5c-0.1-0.2-0.2-0.4-0.3-0.6c0.1-0.2,0.2-0.4,0.3-0.6C34.2,22.7,34.6,20.4,34.6,18.1z
		 M7.7,13.7c0.4-1.4,1.1-2.7,2-3.8c0.9-1.1,2-2,3.2-2.7c1.3-0.7,2.7-1,4.4-1c1.6,0,3.1,0.3,4.3,1c1.3,0.6,2.3,1.5,3.2,2.6
		c0.9,1.1,1.6,2.4,2,3.8c0.5,1.4,0.7,2.9,0.7,4.4c0,0.2,0,0.4,0,0.7c-1-0.8-2.2-1.5-3.4-2c-2.1-0.9-4.4-1.4-6.9-1.4
		c-2.6,0-5,0.5-7.1,1.5C9.1,17.2,8,17.9,7,18.6c0-0.2,0-0.4,0-0.6C7,16.5,7.2,15.1,7.7,13.7z M25.5,25.5c-0.2,0.2-0.3,0.5-0.5,0.7
		c-0.9,1.1-2,2-3.2,2.7c-1.3,0.7-2.8,1-4.5,1c-1.6,0-3.1-0.3-4.4-1c-1.3-0.6-2.4-1.5-3.2-2.6c-0.2-0.3-0.4-0.5-0.6-0.8
		c0.2-0.3,0.4-0.5,0.6-0.8c0.9-1.1,2-1.9,3.2-2.6c1.3-0.6,2.7-0.9,4.4-0.9c1.7,0,3.2,0.3,4.5,1c1.3,0.7,2.3,1.5,3.2,2.6
		C25.2,25,25.4,25.2,25.5,25.5z M27,37c-0.5,1.4-1.1,2.6-2,3.7c-0.9,1.1-2,1.9-3.2,2.6c-1.3,0.6-2.7,0.9-4.3,0.9
		c-1.6,0-3.1-0.3-4.4-1c-1.3-0.7-2.4-1.5-3.2-2.6c-0.9-1.1-1.6-2.3-2-3.7C7.2,35.5,7,34.1,7,32.7c0-0.1,0-0.1,0-0.2
		c1,0.8,2.1,1.5,3.2,2c2.1,1,4.5,1.5,7.1,1.5c2.5,0,4.8-0.5,6.9-1.5c1.2-0.6,2.4-1.3,3.4-2.1c0,0.1,0,0.1,0,0.2
		C27.7,34.2,27.4,35.6,27,37z"/>
	<path d="M59.3,23.9c2.2,0,4.1-0.6,5.8-1.7c1.7-1.1,2.9-2.6,3.8-4.4c0.9-1.8,1.3-3.7,1.3-5.7c0-1.5-0.3-2.9-0.8-4.3
		c-0.5-1.4-1.3-2.7-2.3-3.8c-1-1.1-2.2-2-3.6-2.7c-1.4-0.7-2.9-1-4.5-1H44v15.2v20.3v14.1h15c1.6,0,3.1-0.3,4.5-1
		c1.4-0.6,2.6-1.5,3.6-2.6c1-1.1,1.8-2.3,2.3-3.7c0.6-1.4,0.8-2.7,0.8-4.2c0-1.9-0.5-3.7-1.3-5.5c-0.9-1.8-2.2-3.2-3.8-4.3
		c-1.7-1.1-3.6-1.6-5.8-1.6h-8.4v-3.2H59.3z M50.9,6.3h7.7c0.8,0,1.6,0.2,2.3,0.7c0.7,0.4,1.3,1.1,1.8,1.9c0.5,0.9,0.7,1.9,0.7,3.1
		c0,1.1-0.2,2.1-0.6,3c-0.4,0.9-0.9,1.6-1.6,2c-0.7,0.5-1.4,0.7-2.3,0.7h-8v-2.3V6.3z M58.9,32.9c0.9,0,1.6,0.2,2.3,0.7
		c0.7,0.5,1.2,1.1,1.6,2c0.4,0.9,0.6,1.8,0.6,2.9c0,1.2-0.2,2.2-0.7,3c-0.5,0.8-1,1.5-1.8,1.9c-0.7,0.4-1.5,0.7-2.3,0.7h-7.7v-8.3
		v-2.9H58.9z"/>
	<path d="M94.4,23.9c2.2,0,4.1-0.6,5.8-1.7c1.7-1.1,2.9-2.6,3.8-4.4c0.9-1.8,1.3-3.7,1.3-5.7c0-1.5-0.3-2.9-0.8-4.3
		c-0.5-1.4-1.3-2.7-2.3-3.8c-1-1.1-2.2-2-3.6-2.7c-1.4-0.7-2.9-1-4.5-1h-15v15.2v20.3v14.1h15c1.6,0,3.1-0.3,4.5-1
		c1.4-0.6,2.6-1.5,3.6-2.6c1-1.1,1.8-2.3,2.3-3.7c0.6-1.4,0.8-2.7,0.8-4.2c0-1.9-0.5-3.7-1.3-5.5c-0.9-1.8-2.2-3.2-3.8-4.3
		c-1.7-1.1-3.6-1.6-5.8-1.6H86v-3.2H94.4z M86,6.3h7.7c0.8,0,1.6,0.2,2.3,0.7c0.7,0.4,1.3,1.1,1.8,1.9c0.5,0.9,0.7,1.9,0.7,3.1
		c0,1.1-0.2,2.1-0.6,3c-0.4,0.9-0.9,1.6-1.6,2c-0.7,0.5-1.4,0.7-2.3,0.7h-8v-2.3V6.3z M94,32.9c0.9,0,1.6,0.2,2.3,0.7
		c0.7,0.5,1.2,1.1,1.6,2c0.4,0.9,0.6,1.8,0.6,2.9c0,1.2-0.2,2.2-0.7,3c-0.5,0.8-1,1.5-1.8,1.9c-0.7,0.4-1.5,0.7-2.3,0.7H86v-8.3
		v-2.9H94z"/>
	<path d="M146.7,18.1c0-2.3-0.4-4.5-1.2-6.6c-0.8-2.1-2-4.1-3.5-5.8c-1.5-1.7-3.3-3.1-5.4-4.2c-2.1-1-4.5-1.5-7-1.5
		c-2.5,0-4.8,0.5-7,1.5c-2.1,1-4,2.3-5.5,4c-1.5,1.7-2.8,3.6-3.7,5.8c-0.9,2.1-1.3,4.4-1.3,6.8c0,2.3,0.4,4.5,1.2,6.6
		c0.1,0.3,0.2,0.6,0.4,0.8c-0.1,0.3-0.3,0.5-0.4,0.8c-0.8,2.1-1.2,4.2-1.2,6.4c0,2.3,0.4,4.5,1.3,6.6c0.9,2.1,2.1,3.9,3.7,5.6
		c1.5,1.6,3.4,2.9,5.5,3.9c2.1,1,4.5,1.4,7,1.4c2.6,0,4.9-0.5,7-1.5c2.1-1,3.9-2.3,5.4-4c1.5-1.7,2.7-3.5,3.5-5.6
		c0.8-2.1,1.2-4.2,1.2-6.4c0-2.3-0.4-4.4-1.3-6.5c-0.1-0.2-0.2-0.4-0.3-0.6c0.1-0.2,0.2-0.4,0.3-0.6
		C146.3,22.7,146.7,20.4,146.7,18.1z M119.8,13.7c0.4-1.4,1.1-2.7,2-3.8c0.9-1.1,2-2,3.2-2.7c1.3-0.7,2.7-1,4.4-1
		c1.6,0,3.1,0.3,4.3,1c1.3,0.6,2.3,1.5,3.2,2.6c0.9,1.1,1.6,2.4,2,3.8c0.5,1.4,0.7,2.9,0.7,4.4c0,0.2,0,0.4,0,0.7
		c-1-0.8-2.2-1.5-3.4-2c-2.1-0.9-4.4-1.4-6.9-1.4c-2.6,0-5,0.5-7.1,1.5c-1.2,0.5-2.2,1.2-3.2,1.9c0-0.2,0-0.4,0-0.6
		C119.1,16.5,119.3,15.1,119.8,13.7z M137.6,25.5c-0.2,0.2-0.3,0.5-0.5,0.7c-0.9,1.1-2,2-3.2,2.7c-1.3,0.7-2.8,1-4.5,1
		c-1.6,0-3.1-0.3-4.4-1c-1.3-0.6-2.4-1.5-3.2-2.6c-0.2-0.3-0.4-0.5-0.6-0.8c0.2-0.3,0.4-0.5,0.6-0.8c0.9-1.1,2-1.9,3.2-2.6
		c1.3-0.6,2.7-0.9,4.4-0.9c1.7,0,3.2,0.3,4.5,1c1.3,0.7,2.3,1.5,3.2,2.6C137.3,25,137.5,25.2,137.6,25.5z M139,37
		c-0.5,1.4-1.1,2.6-2,3.7c-0.9,1.1-2,1.9-3.2,2.6c-1.3,0.6-2.7,0.9-4.3,0.9c-1.6,0-3.1-0.3-4.4-1c-1.3-0.7-2.4-1.5-3.2-2.6
		c-0.9-1.1-1.6-2.3-2-3.7c-0.5-1.4-0.7-2.8-0.7-4.2c0-0.1,0-0.1,0-0.2c1,0.8,2.1,1.5,3.2,2c2.1,1,4.5,1.5,7.1,1.5
		c2.5,0,4.8-0.5,6.9-1.5c1.2-0.6,2.4-1.3,3.4-2.1c0,0.1,0,0.1,0,0.2C139.7,34.2,139.5,35.6,139,37z"/>
	<polygon points="190.5,15.5 190.5,35.8 190.5,49.9 197.4,49.9 197.4,35.8 197.4,15.5 197.4,0.2 190.5,0.2 	"/>
	<polygon points="205.8,6.3 217.2,6.3 217.2,15.5 217.2,35.8 217.2,44 205.8,44 205.8,49.9 235.3,49.9 235.3,44 224,44 224,35.8 
		224,15.5 224,6.3 235.3,6.3 235.3,0.2 205.8,0.2 	"/>
	<path d="M180.3,20.7c-0.7-1.3-1.7-2.3-2.9-3.2c-1.2-0.8-2.6-1.4-4.2-1.8c-0.5-0.1-1-0.2-1.5-0.3c-0.6-0.2-1.1-0.3-1.7-0.5
		c-1.8-0.5-3.3-0.9-4.5-1.3s-2.1-0.9-2.7-1.4c-0.6-0.6-0.9-1.3-0.9-2.3c0-1.3,0.5-2.3,1.4-3s2.4-1,4.2-1c1.1,0,2.1,0.1,3.2,0.4
		c1,0.3,2,0.6,2.9,1c0.9,0.4,1.6,0.8,2.2,1.2c0.6,0.4,1,0.7,1.3,0.9l3-5.6c-1-0.7-2.2-1.4-3.5-2s-2.7-1.1-4.2-1.5
		c-1.5-0.4-3.1-0.5-4.7-0.5c-2.4,0-4.6,0.4-6.5,1.3c-2,0.8-3.5,2.1-4.7,3.7c-1.2,1.6-1.8,3.7-1.8,6.1c0,1.8,0.4,3.3,1.1,4.5
		c0.4,0.7,1,1.3,1.7,1.9c-1.5,0.6-2.9,1.4-4.2,2.3l3,5.8l-3,5.9c1.2,0.8,2.5,1.5,3.8,2.1c-0.5,0.5-1,1-1.3,1.5
		c-0.8,1.1-1.1,2.6-1.1,4.3c0,2.3,0.6,4.3,1.8,5.9c1.2,1.6,2.7,2.8,4.7,3.6c2,0.8,4.2,1.2,6.5,1.2c1.7,0,3.2-0.2,4.7-0.5
		c1.5-0.4,2.9-0.8,4.2-1.4s2.5-1.2,3.5-1.9l-3-5.4c-0.2,0.2-0.7,0.5-1.3,0.9c-0.6,0.4-1.4,0.8-2.2,1.1c-0.9,0.4-1.8,0.7-2.9,1
		c-1,0.3-2.1,0.4-3.2,0.4c-1.9,0-3.3-0.3-4.2-1s-1.4-1.6-1.4-2.9c0-0.9,0.3-1.7,0.9-2.2c0.6-0.5,1.5-1,2.7-1.4
		c0.8-0.2,1.7-0.5,2.7-0.8c0,0,0,0,0.1,0c1.8,0,3.4-0.2,5-0.6c1.6-0.4,3-1,4.2-1.8c1.2-0.8,2.2-1.9,2.9-3.3c0.7-1.3,1-2.9,1-4.8
		c0,0,0-0.1,0-0.1c0,0,0-0.1,0-0.1C181.3,23.6,181,22,180.3,20.7z M164.3,29.3c-1.3-0.3-2.5-0.7-3.6-1.2c-1.1-0.5-2-1-2.8-1.5
		c-0.8-0.5-1.3-0.9-1.6-1.2c0.3-0.3,0.8-0.7,1.6-1.1c0.8-0.5,1.7-0.9,2.8-1.4c1.1-0.5,2.3-0.9,3.6-1.2c0.9-0.2,1.8-0.4,2.7-0.4
		c0.9,0.3,1.8,0.5,2.6,0.8c1.4,0.4,2.4,1,3.2,1.6c0.6,0.5,0.9,1.1,1.1,1.8c-0.1,0.7-0.5,1.3-1.1,1.7c-0.8,0.6-1.8,1.1-3.2,1.5
		c-1,0.3-2.1,0.6-3.3,1C165.7,29.6,165,29.5,164.3,29.3z"/>
	<polygon points="268.4,21.3 268.4,14.8 250.7,14.8 250.7,6.3 268.4,6.3 268.4,0.2 243.8,0.2 243.8,14.8 243.8,35.8 243.8,49.9 
		268.4,49.9 268.4,44 250.7,44 250.7,35.8 268.4,35.8 268.4,29.7 250.7,29.7 250.7,21.3 	"/>
</g>
</svg>
